<?xml version="1.0" encoding="UTF-8" standalone="no"?>
<svg width="16px" height="16px" viewBox="0 0 16 16" version="1.1" xmlns="http://www.w3.org/2000/svg" xmlns:xlink="http://www.w3.org/1999/xlink">
    <!-- Generator: Sketch 3.7.2 (28276) - http://www.bohemiancoding.com/sketch -->
    <title>Page 1</title>
    <desc>Created with Sketch.</desc>
    <defs></defs>
    <g id="Page-1" stroke="none" stroke-width="1" fill="none" fill-rule="evenodd">
        <g transform="translate(-1.000000, -1.000000)">
            <path d="M12.1250277,13.0399556 L5.44643965,13.0399556 L12.1250277,6.39844617 L12.1250277,13.0399556 Z M11.5178833,5.93673696 L4.85715247,12.5604883 L4.85715247,5.93673696 L11.5178833,5.93673696 Z M16.8928569,1.63928968 C17.0357144,1.49722531 17.0357144,1.24861265 16.8928569,1.10654828 C16.7499994,0.964483907 16.5000386,0.964483907 16.3571811,1.10654828 L12.8393152,4.62264151 L4.85715247,4.62264151 L4.85715247,2.63374029 C4.85715247,2.27857936 4.55358028,1.97669256 4.19639667,1.97669256 C3.83925293,1.97669256 3.5357206,2.27857936 3.5357206,2.63374029 L3.5357206,4.62264151 L1.66071593,4.62264151 C1.30357218,4.62264151 1,4.9245283 1,5.27968923 C1,5.63485017 1.30357218,5.93673696 1.66071593,5.93673696 L3.5357206,5.93673696 L3.5357206,14.3540511 L12.1250277,14.3540511 L12.1250277,16.3429523 C12.1250277,16.6981132 12.42856,17 12.7857038,17 C13.1428475,17 13.4464197,16.6981132 13.4464197,16.3429523 L13.4464197,14.336293 L15.3214244,14.336293 C15.6785681,14.336293 15.9821802,14.0344062 15.9821802,13.6792453 C15.9821802,13.3240844 15.6785681,13.0221976 15.3214244,13.0221976 L13.4464197,13.0221976 L13.4464197,5.08435072 L16.8928569,1.63928968 Z" id="Fill-1" fill="#000000"></path>
            <rect id="Rectangle-1" x="0" y="0" width="18" height="18"></rect>
        </g>
    </g>
</svg>