<?xml version="1.0" encoding="UTF-8" standalone="no"?>
<svg width="16px" height="16px" viewBox="0 0 16 16" version="1.1" xmlns="http://www.w3.org/2000/svg" xmlns:xlink="http://www.w3.org/1999/xlink">
    <!-- Generator: Sketch 3.7.2 (28276) - http://www.bohemiancoding.com/sketch -->
    <title>Page 1</title>
    <desc>Created with Sketch.</desc>
    <defs></defs>
    <g id="Page-1" stroke="none" stroke-width="1" fill="none" fill-rule="evenodd">
        <g transform="translate(-1.000000, -1.000000)">
            <path d="M11.4912203,1.00039696 C11.2907949,1.00979443 11.1359392,1.17992101 11.1452962,1.38034633 C11.1546937,1.58081215 11.3248203,1.73566785 11.5252456,1.72627038 L15.7273722,1.72627038 L1.72595443,15.7276881 L1.72595443,11.525602 C1.73028861,11.3251362 1.57130127,11.1591818 1.37087595,11.1548476 C1.35499747,11.1545235 1.33911899,11.1552122 1.32332152,11.1569539 C1.1363443,11.1775311 0.99603038,11.3374906 1.00008101,11.525602 L1.00008101,16.6066754 C1.00008101,16.8071413 1.16259241,16.9695716 1.36301772,16.9696122 L6.44413165,16.9696122 C6.64459747,16.9724881 6.80937722,16.8122451 6.81221266,16.6118197 C6.8150481,16.4113539 6.65488608,16.2465742 6.45437975,16.2437387 C6.45097722,16.2436982 6.44753418,16.2436982 6.44413165,16.2437387 L2.23633418,16.2437387 L16.2434228,2.23665013 L16.2434228,6.44444759 C16.2405873,6.64491342 16.4007899,6.80969316 16.6012152,6.81252861 C16.801681,6.81536405 16.9664608,6.65516152 16.9692962,6.4546957 C16.9693367,6.45129316 16.9693367,6.44785013 16.9692962,6.44444759 L16.9692962,1.36333367 C16.9692557,1.16290835 16.8068253,1.00039696 16.6063595,1.00039696 L11.5252456,1.00039696 C11.5139443,0.99987038 11.502562,0.99987038 11.4912203,1.00039696" id="Fill-1" fill="#000000"></path>
            <rect id="Rectangle-1" x="0" y="0" width="18" height="18"></rect>
        </g>
    </g>
</svg>